<?xml version="1.0" encoding="UTF-8"?><svg id="a" xmlns="http://www.w3.org/2000/svg" viewBox="0 0 1140.82 437.36"><defs><style>.b{fill:#fce650;}.c{fill:#59c6f2;}.d{fill:#1a2693;}</style></defs><path class="d" d="M65.4,83.44l.05,61.52h40.89v46.92h-40.89v138.05H0V88.01C0,31.21,27.64,0,73.13,0c9.37,0,27.29,2.58,39.71,7.98V62.76c-7.73-4.3-14.12-9.38-25.38-9.38-16.24,0-22.07,15.13-22.07,30.06"/><path class="d" d="M330.71,144.67v184.97h-60.56v-35.17s-14.81,42-60.65,42c-63.41,0-85.43-59.82-85.43-99.26,0-47.53,30.14-99.35,86.02-99.35,43.42,0,60.06,37.57,60.06,37.57v-30.74h60.56Zm-62.22,92.53c0-17.94-14.42-39.45-38.65-39.45s-40.32,17.67-40.32,39.45,16.54,39.44,40.31,39.44c25.07,0,38.66-20.49,38.66-39.44"/><path class="d" d="M500.83,227.84h-6.55c-33.55-42.65-58.86-43.38-58.86-2.92v105.04h-65.09V144.99h54.18l10.91,22.65c3.48-7.78,17.75-22.65,47.3-22.65h18.12v82.85Z"/><path class="d" d="M834.54,216.62v113.43h-65.45v-95.9c0-23.38-6.66-37.97-26.88-37.97s-26.86,14.59-26.86,37.97l-.05,95.9h-65.5v-95.9c0-23.38-6.66-37.97-26.86-37.97s-26.88,14.59-26.88,37.97l-.05,95.9h-65.45V145.09h60.56v35.37s13.36-42.2,56.17-42.2c47.55,0,59.43,39.55,59.43,39.55,0,0,16.4-39.55,59.84-39.55,52.4,0,67.97,39.78,67.97,78.36"/><path class="d" d="M1058.19,144.68v184.97l-60.56-.02v-35.37s-11.42,42.2-56.16,42.2c-47.21,0-71.6-32.46-71.6-74.84v-116.95h65.45l-.65,97.18c0,25.3,10.18,36.69,28.53,36.69,15.49,0,29.44-10.54,29.44-36.43l.1-97.44h65.45Z"/><path class="c" d="M1108.67,51.29h-.08c-8.14,.14-15.23,2.82-21.06,7.94-7.3,6.36-11,14.54-11,24.32,0,5.73,1.41,11.12,4.17,15.98,2.98,5.34,7.26,9.54,12.72,12.45,4.71,2.54,9.71,3.84,14.84,3.84,8.28,0,15.55-2.67,21.62-7.94,7.26-6.32,10.95-14.42,10.95-24.08,0-8.61-2.82-16.04-8.4-22.09-6.39-6.91-14.38-10.41-23.75-10.41"/><path class="b" d="M848.51,372.83h-.08c-8.14,.14-15.23,2.82-21.06,7.94-7.3,6.36-11,14.54-11,24.32,0,5.73,1.41,11.12,4.17,15.98,2.98,5.34,7.26,9.54,12.72,12.45,4.71,2.55,9.71,3.84,14.84,3.84,8.28,0,15.55-2.67,21.62-7.94,7.26-6.32,10.94-14.42,10.94-24.08,0-8.61-2.82-16.04-8.4-22.09-6.39-6.91-14.38-10.41-23.75-10.41"/></svg>